<svg enable-background="new 0 0 457.699 457.699" viewBox="0 0 457.699 457.699" xmlns="http://www.w3.org/2000/svg"><path d="m248.632 411.524h-245.988v-397.481h245.988z" fill="#e6e6e6"/><path d="m27.644 39.044h195.988v21.274h-195.988z" fill="#ccc"/><path d="m27.644 365.249h195.988v21.274h-195.988z" fill="#ccc"/><path d="m27.644 317.534h195.988v21.274h-195.988z" fill="#ccc"/><path d="m27.644 269.819h195.988v21.274h-195.988z" fill="#ccc"/><path d="m27.644 222.104h195.988v21.274h-195.988z" fill="#ccc"/><path d="m338.109 267.381v-37.759l64.38 64.38c8.797 8.797 15.672 19.168 20.342 30.45 4.671 11.281 7.146 23.473 7.146 35.912l25.078 18.22-59.02 79.115-41.455-24.439h-13.323c-15.11 0-29.99-3.641-43.39-10.626l-79.149-41.272v-1.217h93.561 6.228c10.831 0 19.602-8.772 19.602-19.594z" fill="#fcd18b"/><path d="m171.813 289.246v4.56c-1.897-.34-3.761-.936-5.53-1.77 1.727-1.216 3.59-2.143 5.53-2.79z" fill="#fcd18b"/><path d="m171.813 243.482v5.054c-.272-.23-.527-.477-.783-.732l-4.297-4.297c.868-.111 1.744-.162 2.62-.162.818.001 1.643.043 2.46.137z" fill="#fcd18b"/><path d="m318.51 76.503h-127.09c-10.83 0-19.61 8.77-19.61 19.6v264.45c0 10.82 8.78 19.59 19.61 19.59h120.86c-10.51-13.02-13.38-30.15-8.63-45.43h-123.98v-218.13h150.59v142.95l7.85 7.85v-171.28c-.001-10.83-8.771-19.6-19.6-19.6m-63.551 266c8.58 0 15.52 6.95 15.52 15.52 0 8.58-6.94 15.52-15.52 15.52-8.57 0-15.52-6.94-15.52-15.52.001-8.57 6.951-15.52 15.52-15.52" fill="#808080"/><path d="m163.211 325.983 6.415 6.415c.698.689 1.429 1.327 2.187 1.906v-40.498c-1.897-.34-3.761-.936-5.53-1.77-1.081.732-2.11 1.583-3.071 2.544-8.671 8.679-8.671 22.734-.001 31.403z" fill="#fcd18b"/><path d="m153.657 281.249 6.415 6.415c1.855 1.855 3.956 3.318 6.211 4.373 1.727-1.217 3.59-2.144 5.53-2.791v-40.711c-.272-.23-.527-.476-.783-.731l-4.296-4.297c-4.781.562-9.41 2.671-13.077 6.338-8.67 8.67-8.67 22.734 0 31.404z" fill="#fcd18b"/><path d="m171.813 243.482v-50.044c-.536-.034-1.072-.06-1.6-.06-5.683 0-11.358 2.17-15.697 6.509-8.67 8.669-8.67 22.725 0 31.394l12.217 12.226c.868-.111 1.744-.162 2.62-.162.818 0 1.643.043 2.46.137z" fill="#fcd18b"/><path d="m330.265 116.586v142.951l-22.674-22.674c-9.588-9.597-25.15-9.597-34.747 0-4.798 4.798-7.197 11.077-7.197 17.373 0 6.288 2.399 12.575 7.197 17.374l28.298 28.297c7.428 7.428 9.605 18.76 5.079 28.238-1.021 2.135-1.88 4.339-2.569 6.568h-123.987v-218.127z" fill="#fff"/><path d="m254.961 342.506c8.576 0 15.518 6.951 15.518 15.518 0 8.576-6.943 15.519-15.518 15.519-8.568 0-15.518-6.942-15.518-15.519-.001-8.567 6.95-15.518 15.518-15.518z" fill="#4d4d4d"/><path d="m367.409 284.92-29.301-29.3v11.761l23.42 23.42c2.62 2.619 7.098.764 7.098-2.94.001-1.104-.437-2.162-1.217-2.941" fill="#ddb57a"/><path d="m338.109 229.622 9.861 9.861v30.657l-9.861-2.759z" fill="#ddb57a"/><g fill="#4d4d4d"><path d="m239.473 194.127h-45.092v-45.092h45.092zm-34.032-11.061h22.971v-22.971h-22.971z"/><path d="m212.132 166.786h9.59v9.59h-9.59z"/><path d="m239.473 270.195h-45.092v-45.092h45.092zm-34.032-11.061h22.971v-22.971h-22.971z"/><path d="m212.132 242.854h9.59v9.59h-9.59z"/><path d="m315.541 194.127h-45.092v-45.092h45.092zm-34.032-11.061h22.971v-22.971h-22.971z"/><path d="m297.79 166.786v9.589h-9.59v-9.589z"/><path d="m259.756 166.786v9.589h-9.59v-9.589z"/><path d="m259.756 176.375v9.591h-9.59v-9.591z"/><path d="m259.756 214.41v9.59h-9.59v-9.59z"/><path d="m269.608 224.262v9.59h-9.59v-9.59z"/><path d="m269.608 233.852v9.59h-9.59v-9.59z"/><path d="m279.392 243.636v9.59h-9.59v-9.59z"/><path d="m279.392 253.226v9.59h-9.59v-9.59z"/><path d="m315.541 260.605v9.59h-9.59v-9.59z"/><path d="m305.951 243.636v9.59h-9.59v-9.59z"/><path d="m315.541 243.636v9.59h-9.59v-9.59z"/><path d="m305.951 202.209v9.59h-9.59v-9.59z"/><path d="m315.541 202.209v9.59h-9.59v-9.59z"/><path d="m260.018 243.636v9.59h-9.59v-9.59z"/><path d="m250.166 204.82v9.59h-9.59v-9.59z"/><path d="m282.979 212.728v9.591h-9.59v-9.591z"/><path d="m292.569 212.728v9.591h-9.59v-9.591z"/><path d="m292.569 222.319v9.589h-9.59v-9.589z"/><path d="m282.979 203.139v9.589h-9.59v-9.589z"/><path d="m273.389 203.139v9.589h-9.59v-9.589z"/><path d="m216.501 204.82h9.59v9.59h-9.59z"/><path d="m194.381 204.82h9.59v9.59h-9.59z"/><path d="m259.756 185.966v9.589h-9.59v-9.589z"/></g><path d="m27.644 89.214h103.994v103.994h-103.994z" fill="#fff"/><path d="m102.187 163.757h-45.092v-45.092h45.092zm-34.032-11.06h22.971v-22.971h-22.971z" fill="#808080"/><path d="m74.846 136.416h9.59v9.59h-9.59z" fill="#808080"/><path d="m305.951 270.195v-9.59h9.59v9.59zm-36.149-16.969v-9.59h9.59v9.59 9.59h-9.59zm26.559 0v-9.59h9.59v9.59zm-3.792-23.449v2.132h-9.59v-1.157c-3.709 1.14-7.2 3.177-10.135 6.112-1.238 1.238-2.317 2.576-3.236 3.987v2.592h-1.471c-1.66 3.394-2.49 7.091-2.49 10.794 0 6.288 2.399 12.575 7.197 17.374l28.298 28.297c7.428 7.428 9.605 18.76 5.079 28.238-1.021 2.135-1.88 4.339-2.569 6.568h-21.712 21.71c-4.75 15.28-1.88 32.41 8.63 45.43h4.164c11.91 0 21.576-9.61 21.665-21.499v-91.263l-7.849-7.847-14.719-14.72v8.413h-9.59v-9.59h8.413l-6.773-6.773c-4.197-4.203-9.538-6.565-15.022-7.088m37.69-113.194h-81.627v.002h81.627z" fill="#fff"/><path d="m248.632 116.583h-33.172l33.172.002zm0-40.08h-45.393z" fill="#eee"/><path d="m338.109 267.383-.001 91.26c0-.055.001-.111.001-.167v-91.096l-.001-.001" fill="#fde0b0"/><path d="m303.65 334.713h-21.71l13.84 45.43h16.5c-10.51-13.02-13.381-30.15-8.63-45.43m14.86-258.21h-69.878-45.393l12.22 40.08h33.172 81.627l.005.002v142.951l-.005-.005v.002l7.849 7.849.001.001-.001-.003v-11.76-25.998l.001.001v-133.52c.001-10.825-8.774-19.6-19.598-19.6z" fill="#a9a9a9"/><path d="m288.2 176.375v-9.59h9.59v9.59zm16.28-16.28h-22.971v22.971h22.971zm-54.314 63.905v-9.59h9.59v9.59zm23.223-1.681v-9.59h9.59v9.59zm0-19.18h9.59v9.59h-9.59-9.59v-9.59zm22.972 8.66v-9.59h9.59v9.59zm9.59 0v-9.59h9.59v9.59zm-55.785-35.424v-9.59h9.59v9.59 9.59 9.59h-9.59v-9.59zm20.283 17.752v-45.092h45.092v45.092zm59.816-77.541h-.005-81.627-33.171l9.888 32.449h14.124v45.092h-.383l3.258 10.693h7.818v9.59h-4.896l8.906 29.226h5.841v9.59h-2.919l12.341 40.498 12.5 40.99h21.712c.689-2.229 1.548-4.433 2.569-6.568 4.526-9.478 2.348-20.81-5.079-28.238l-28.298-28.297c-4.798-4.799-7.197-11.086-7.197-17.374 0-3.703.83-7.4 2.49-10.794h-8.119v-9.59-9.59h9.59v9.59 6.997c.919-1.411 1.998-2.748 3.236-3.987 2.935-2.935 6.426-4.972 10.135-6.112v-8.433-9.59h9.59v9.59 7.458c5.484.523 10.825 2.885 15.022 7.086l6.773 6.773h1.177v1.177l14.719 14.719.005.005z" fill="#fff"/><path d="m338.109 229.622v25.998 11.761-37.758z" fill="#e8cda5"/><path d="m239.473 149.035h-14.124l13.741 45.092h.383z" fill="#868686"/><path d="m281.509 183.066v-22.971h22.971v22.971zm34.032-34.031h-45.092v45.092h45.092z" fill="#868686"/><path d="m297.79 166.786h-9.59v9.589h9.59z" fill="#868686"/><path d="m259.756 166.786h-9.59v9.589h9.59z" fill="#868686"/><path d="m259.756 176.375h-9.59v9.591h9.59z" fill="#868686"/><path d="m259.756 214.41h-9.59v9.59h9.59z" fill="#868686"/><path d="m269.608 224.262h-9.59v9.59h9.59z" fill="#868686"/><path d="m269.608 233.852h-9.59v9.59h8.119 1.471v-2.593z" fill="#868686"/><path d="m279.392 243.636h-9.59v9.59h9.59z" fill="#868686"/><path d="m279.392 253.226h-9.59v9.59h9.59z" fill="#868686"/><path d="m315.541 260.605h-9.59v9.59h9.59z" fill="#868686"/><path d="m305.951 243.636h-9.59v9.59h9.59z" fill="#868686"/><path d="m315.541 243.636h-1.177-8.413v9.59h9.59v-8.413z" fill="#868686"/><path d="m305.951 202.209h-9.59v9.59h9.59z" fill="#868686"/><path d="m315.541 202.209h-9.59v9.59h9.59z" fill="#868686"/><path d="m260.018 243.636h-5.842l2.923 9.59h2.919z" fill="#868686"/><path d="m250.166 204.82h-7.818l2.922 9.59h4.896z" fill="#868686"/><path d="m282.979 212.728h-9.59v9.591h9.59z" fill="#868686"/><path d="m292.569 212.728h-9.59v9.591h9.59z" fill="#868686"/><path d="m292.569 222.319h-9.59v8.432 1.157h9.59v-2.131z" fill="#868686"/><path d="m282.979 203.139h-9.59v9.589h9.59z" fill="#868686"/><path d="m273.389 203.139h-9.59v9.589h9.59z" fill="#868686"/><path d="m259.756 185.966h-9.59v9.589h9.59z" fill="#868686"/><path d="m338.109 267.381v93.17c0 10.822-8.772 19.594-19.602 19.594h-6.228c-10.507-13.026-13.383-30.152-8.627-45.433h26.613v-75.176z" fill="#fcd18b"/><path d="m330.264 259.536v75.176h-26.613c.689-2.229 1.548-4.433 2.569-6.568 4.526-9.478 2.348-20.81-5.079-28.238l-28.297-28.297c-4.798-4.799-7.198-11.086-7.198-17.373 0-6.296 2.399-12.575 7.198-17.373 9.597-9.597 25.158-9.597 34.746 0z" fill="#fcd18b"/><path d="m302.06 244.278c-5.788-5.788-15.172-5.788-20.96 0s-5.788 15.172 0 20.96 10.786 1.401 16.573-4.386c5.789-5.788 10.175-10.786 4.387-16.574z" fill="#fff"/><path d="m423.253 70.679c0 26.854-14.971 50.195-37.02 62.159-10.004 5.431-21.464 8.52-33.645 8.52-39.035 0-70.679-31.644-70.679-70.679 0-36.762 28.065-66.963 63.928-70.353 2.218-.217 4.477-.326 6.75-.326 39.022 0 70.666 31.644 70.666 70.679z" fill="#fc7a51"/><path d="m352.581 106.898h-15.897v-8.854h15.897c6.324 0 11.469-5.145 11.469-11.469 0-6.325-5.145-11.47-11.469-11.47-11.206 0-20.324-9.117-20.324-20.323s9.118-20.324 20.324-20.324h15.896v8.854h-15.896c-6.325 0-11.47 5.146-11.47 11.47s5.145 11.469 11.47 11.469c11.206 0 20.323 9.118 20.323 20.324s-9.117 20.323-20.323 20.323z" fill="#fff"/><path d="m348.15 17.237h8.854v21.65h-8.854z" fill="#fff"/><path d="m348.15 102.471h8.854v21.651h-8.854z" fill="#fff"/></svg>